<?xml version="1.0" encoding="utf-8"?>
<!-- Generator: Adobe Illustrator 19.1.0, SVG Export Plug-In . SVG Version: 6.00 Build 0)  -->
<svg version="1.1" id="Layer_1" xmlns="http://www.w3.org/2000/svg" xmlns:xlink="http://www.w3.org/1999/xlink" x="0px" y="0px"
	 viewBox="0 0 243 243" enable-background="new 0 0 243 243" xml:space="preserve">
<rect x="0.4" y="0.5" fill="#00404A" width="243" height="243"/>
<g>
	<path fill="#FFFFFF" d="M174.2,120.9H69.6c-5,0-9-4.1-9-9v-1.7c0-5,4.1-9,9-9h104.5c5,0,9,4.1,9,9v1.7
		C183.2,116.9,179.1,120.9,174.2,120.9z"/>
	<path fill="#FFFFFF" d="M80.1,122.9h85C165,122.9,125.8,149.9,80.1,122.9z"/>
	<path fill="#FFFFFF" d="M128.8,96.9c0.2-1-0.2-1.2-0.2-1.8V68.1c0-3.3-2.2-6.1-5.5-6.1h-0.3c-3.3,0-6.2,2.9-6.2,6.1v27.1
		c0,0.6,0.3,0.8,0.5,1.8H128.8z"/>
	<path fill="#FFFFFF" d="M90.6,146c-1.2-1.9-5.1-10.5-5.1-10.5c-0.2-0.3-0.4,0-0.4,0s-3.9,8.6-5.1,10.5c-1.1,1.8-1.7,8,4.7,9.1
		c0,0,0.7,0.1,1.2,0C92.4,154,91.7,147.8,90.6,146z"/>
	<path fill="#FFFFFF" d="M116.3,149.7c-1.2-1.9-5.1-10.5-5.1-10.5c-0.2-0.3-0.4,0-0.4,0s-3.9,8.6-5.1,10.5c-1.1,1.8-1.7,8,4.7,9.1
		c0,0,0.7,0.1,1.2,0C118,157.6,117.4,151.4,116.3,149.7z"/>
	<path fill="#FFFFFF" d="M140.5,149.7c-1.2-1.9-5.1-10.5-5.1-10.5c-0.2-0.3-0.4,0-0.4,0s-3.9,8.6-5.1,10.5c-1.1,1.8-1.7,8,4.7,9.1
		c0,0,0.7,0.1,1.2,0C142.2,157.6,141.6,151.4,140.5,149.7z"/>
	<path fill="#FFFFFF" d="M164.6,146c-1.2-1.9-5.1-10.5-5.1-10.5c-0.2-0.3-0.4,0-0.4,0s-3.9,8.6-5.1,10.5c-1.1,1.8-1.7,8,4.7,9.1
		c0,0,0.7,0.1,1.2,0C166.3,154,165.7,147.8,164.6,146z"/>
	<path fill="#FFFFFF" d="M128,172.4c-1.2-1.9-5.1-10.5-5.1-10.5c-0.2-0.3-0.4,0-0.4,0s-3.9,8.6-5.1,10.5c-1.1,1.8-1.7,8,4.7,9.1
		c0,0,0.7,0.1,1.2,0C129.7,180.3,129.1,174.1,128,172.4z"/>
	<path fill="#FFFFFF" d="M102.4,172.4c-1.2-1.9-5.1-10.5-5.1-10.5c-0.2-0.3-0.4,0-0.4,0s-3.9,8.6-5.1,10.5c-1.1,1.8-1.7,8,4.7,9.1
		c0,0,0.7,0.1,1.2,0C104.1,180.3,103.5,174.1,102.4,172.4z"/>
	<path fill="#FFFFFF" d="M152.2,172.4c-1.2-1.9-5.1-10.5-5.1-10.5c-0.2-0.3-0.4,0-0.4,0s-3.9,8.6-5.1,10.5c-1.1,1.8-1.7,8,4.7,9.1
		c0,0,0.7,0.1,1.2,0C153.9,180.3,153.3,174.1,152.2,172.4z"/>
</g>
</svg>
