<?xml version="1.0" encoding="utf-8"?>
<!-- Generator: Adobe Illustrator 19.1.0, SVG Export Plug-In . SVG Version: 6.00 Build 0)  -->
<svg version="1.1" id="Layer_1" xmlns="http://www.w3.org/2000/svg" xmlns:xlink="http://www.w3.org/1999/xlink" x="0px" y="0px"
	 viewBox="0 0 243 243" enable-background="new 0 0 243 243" xml:space="preserve">
<rect x="0.2" y="-0.4" fill="#00404A" width="243" height="243"/>
<g>
	<path fill="#FFFFFF" d="M91.4,115.2c-3.6-5.9-16-32.7-16-32.7c-0.8-1-1.4,0-1.4,0s-12.3,26.9-16,32.7c-3.4,5.6-5.4,24.9,14.8,28.4
		c0,0,2.3,0.3,3.6,0C96.7,140.1,94.8,120.8,91.4,115.2z"/>
	<path fill="#FFFFFF" d="M138.4,115.2c-3.6-5.9-16-32.7-16-32.7c-0.8-1-1.4,0-1.4,0s-12.3,26.9-16,32.7c-3.4,5.6-5.4,24.9,14.8,28.4
		c0,0,2.3,0.3,3.6,0C143.7,140.1,141.8,120.8,138.4,115.2z"/>
	<path fill="#FFFFFF" d="M185.4,115.2c-3.6-5.9-16-32.7-16-32.7c-0.8-1-1.4,0-1.4,0s-12.3,26.9-16,32.7c-3.4,5.6-5.4,24.9,14.8,28.4
		c0,0,2.3,0.3,3.6,0C190.7,140.1,188.8,120.8,185.4,115.2z"/>
	<rect x="55.9" y="152.6" fill="#FFFFFF" width="131.6" height="7.6"/>
</g>
</svg>
