<?xml version="1.0" encoding="utf-8"?>
<!-- Generator: Adobe Illustrator 19.1.0, SVG Export Plug-In . SVG Version: 6.00 Build 0)  -->
<svg version="1.1" id="Layer_1" xmlns="http://www.w3.org/2000/svg" xmlns:xlink="http://www.w3.org/1999/xlink" x="0px" y="0px"
	 viewBox="0 0 3243.1 634" enable-background="new 0 0 3243.1 634" xml:space="preserve">
<g>
	<path fill="#00404A" d="M218.9,435.6H0v-386h202c7.3,0,14.8,0.9,22.6,2.7c7.8,1.8,15.4,4.5,22.9,8c7.5,3.5,14.4,7.5,20.9,12.2
		c6.5,4.6,12,9.8,16.7,15.4c8.3,10,14.7,21.1,19.2,33.3c4.5,12.3,6.7,24.9,6.7,37.8c0,14.9-3,29.3-9,43c-6,13.8-14.6,25.8-25.9,36.1
		c7.3,4.6,14,10.3,20.2,16.9c6.1,6.6,11.4,13.9,15.7,21.9c4.3,8,7.7,16.3,10.2,25.1c2.5,8.8,3.7,17.3,3.7,25.6
		c0,14.6-2.7,28.4-8.2,41.5c-5.5,13.1-13.1,24.5-22.9,34.3c-9.8,9.8-21.1,17.6-34.1,23.4C247.7,432.7,233.8,435.6,218.9,435.6z
		 M170.6,127.1h-69.1v78.6h69.1c10.6,0,19.8-3.9,27.6-11.7c7.8-7.8,11.7-17,11.7-27.6c0-10.6-3.9-19.8-11.7-27.6
		C190.5,131,181.2,127.1,170.6,127.1z M174.1,275.9h-72.6V354h72.6c10.9,0,20.2-3.8,27.9-11.4c7.6-7.6,11.4-16.9,11.4-27.9
		c0-10.6-3.8-19.7-11.4-27.4C194.3,279.7,185.1,275.9,174.1,275.9z"/>
	<path fill="#00404A" d="M635.7,435.6l-19.9-53.2H496.9L477,435.6H368l142.8-386h91l142.8,386H635.7z M556.6,190.3l-30.8,102h61.2
		L556.6,190.3z"/>
	<path fill="#00404A" d="M960,435.6h-93L723.2,50.5h115.4L913.2,250l74.6-199.5h115.4L960,435.6z"/>
	<path fill="#00404A" d="M1418,435.1l-133.8-206v206h-103V49.5h102.5L1418,257.5V49.5h103.5v385.5H1418z"/>
	<path fill="#00404A" d="M1638.5,435.6v-386h307.9v92H1739v55.2h195.5v92H1739V344h207.4v91.5H1638.5z"/>
	<path fill="#00404A" d="M2307.2,435.6V289.8h-136.8v145.8h-107v-386h107v147.3h136.8V49.5h108v386H2307.2z"/>
	<path fill="#00404A" d="M3243.1,227.6c0,30.5-5.9,59.1-17.7,85.8c-11.8,26.7-27.8,50-48,69.9c-20.2,19.9-43.9,35.6-70.9,47
		c-27,11.4-55.8,17.2-86.3,17.2c-7.6,0-15.3-0.4-23.1-1.2c-7.8-0.8-16.2-2.1-25.1-3.7l19.9-99c5,1,9.4,1.7,13.4,2
		c4,0.3,7.8,0.5,11.4,0.5c16.9,0,32.9-3.2,48-9.7c15.1-6.5,28.3-15.2,39.5-26.1c11.3-10.9,20.1-23.9,26.6-38.8
		c6.5-14.9,9.7-30.8,9.7-47.8V49.5h102.5V227.6z"/>
	<path fill="#00404A" d="M2890.4,143.9l-75.1,88.1c0.4,3.8,0.5,7.6,0.5,11.5c0,14.6-2.7,28.5-8,41.8c-5.3,13.3-12.5,24.9-21.6,34.8
		c-9.1,9.9-20.1,17.9-32.8,23.9c-12.6,5.9-26.3,8.9-41,8.9l-70.7,83c4.1,1.5,8.3,2.8,12.5,4c18.6,5.3,37.8,8,57.7,8
		c28.2,0,54.7-5.4,79.6-16.2c24.9-10.8,46.5-25.4,64.9-43.8c18.4-18.4,32.9-40,43.5-64.9c10.6-24.9,15.9-51.4,15.9-79.6
		c0-24.9-4.3-48.9-12.9-72.1C2899.4,161.9,2895.2,152.7,2890.4,143.9z"/>
	<path fill="#00A7AF" d="M2807.7,200.7l68-79.8c-0.1-0.1-0.1-0.2-0.2-0.3l63.6-74.7L2885.2,0l-61.3,72
		c-16.1-10.6-33.4-18.9-51.8-24.7c-19.6-6.1-39.6-9.2-60.2-9.2c-28.5,0-55.1,5.4-79.8,16.2c-24.7,10.8-46.4,25.5-64.9,44.3
		c-18.6,18.7-33.2,40.5-43.8,65.4c-10.6,24.9-15.9,51.4-15.9,79.6c0,25.9,4.6,50.8,13.9,74.9c9,23.3,22,44.3,39.1,63l-34.8,40.9
		l-23.6,25.2h2.2l-0.1,0.1l53.8,45.8l58.5-68.7c0.1,0.1,0.2,0.1,0.3,0.2l64.7-76L2807.7,200.7z M2607.4,243.5
		c0-14.6,2.6-28.5,8-41.8c5.3-13.3,12.6-25,21.9-35.1c9.3-10.1,20.3-18.2,33.1-24.1c12.8-6,26.6-9,41.5-9c17.4,0,33.6,4.2,48.7,12.7
		L2625.4,305C2613.4,286.1,2607.4,265.6,2607.4,243.5z"/>
</g>
<g>
	<path fill="#C8C8C8" d="M775.8,574.2c-1.4-2.3-3.2-3.9-5.6-4.9c-2.3-1-4.7-1.5-7.3-1.5c-1.9,0-3.7,0.2-5.5,0.7
		c-1.8,0.5-3.4,1.2-4.8,2.1c-1.4,0.9-2.6,2.2-3.4,3.7c-0.9,1.5-1.3,3.3-1.3,5.4c0,1.6,0.2,3,0.7,4.2c0.5,1.2,1.3,2.3,2.4,3.3
		c1.1,1,2.7,1.9,4.6,2.8c1.9,0.9,4.3,1.7,7.1,2.6c2.7,0.9,5.4,1.8,7.9,2.8c2.6,1,4.8,2.3,6.8,3.8c2,1.5,3.5,3.4,4.7,5.7
		c1.2,2.3,1.7,5.2,1.7,8.6c0,3.5-0.7,6.6-2.1,9.2c-1.4,2.6-3.2,4.7-5.5,6.4c-2.3,1.7-4.9,3-7.9,3.8c-3,0.8-6.1,1.2-9.3,1.2
		c-2.1,0-4.1-0.2-6.2-0.5c-2.1-0.4-4-0.9-5.9-1.7c-1.9-0.8-3.7-1.8-5.3-3c-1.7-1.2-3.1-2.7-4.3-4.5l7.2-5.9c1.5,2.6,3.6,4.5,6.4,5.9
		c2.7,1.3,5.6,2,8.7,2c1.8,0,3.6-0.3,5.4-0.8c1.8-0.5,3.5-1.3,4.9-2.3c1.5-1,2.7-2.3,3.6-3.8c0.9-1.5,1.4-3.3,1.4-5.3
		c0-2.2-0.4-4-1.1-5.3c-0.7-1.4-1.9-2.5-3.4-3.5c-1.5-1-3.4-1.9-5.8-2.7c-2.3-0.8-5-1.7-8.2-2.8c-2.5-0.8-4.8-1.7-7-2.7
		c-2.1-1-4-2.3-5.5-3.8c-1.6-1.5-2.8-3.3-3.7-5.4c-0.9-2.1-1.3-4.6-1.3-7.5c0-3.4,0.7-6.3,2-8.9c1.3-2.5,3.1-4.6,5.4-6.3
		c2.3-1.7,4.8-3,7.7-3.8c2.9-0.9,5.8-1.3,9-1.3c4,0,7.6,0.6,10.9,1.8c3.3,1.2,6.2,3.4,8.8,6.4L775.8,574.2z"/>
	<path fill="#C8C8C8" d="M900.1,634c-5.4,0-10.3-0.9-14.8-2.8c-4.5-1.9-8.4-4.4-11.6-7.7c-3.3-3.3-5.8-7.2-7.7-11.7
		c-1.8-4.5-2.7-9.5-2.7-14.8c0-5.3,0.9-10.2,2.7-14.8c1.8-4.5,4.4-8.5,7.7-11.7c3.3-3.3,7.2-5.9,11.6-7.7c4.5-1.9,9.4-2.8,14.8-2.8
		c5.4,0,10.3,0.9,14.8,2.8c4.5,1.9,8.4,4.4,11.6,7.7c3.3,3.3,5.8,7.2,7.7,11.7c1.8,4.5,2.7,9.5,2.7,14.8c0,5.3-0.9,10.2-2.7,14.8
		c-1.8,4.5-4.4,8.5-7.7,11.7c-3.3,3.3-7.2,5.9-11.6,7.7C910.4,633.1,905.4,634,900.1,634z M900.1,626.3c4.1,0,7.9-0.8,11.3-2.3
		c3.4-1.5,6.3-3.6,8.8-6.3c2.5-2.7,4.4-5.8,5.7-9.3c1.4-3.5,2-7.3,2-11.4c0-4-0.7-7.8-2-11.4c-1.4-3.5-3.3-6.7-5.7-9.3
		c-2.5-2.7-5.4-4.7-8.8-6.3c-3.4-1.5-7.2-2.3-11.3-2.3c-4.1,0-7.9,0.8-11.3,2.3c-3.4,1.5-6.4,3.6-8.8,6.3c-2.5,2.7-4.4,5.8-5.7,9.3
		c-1.4,3.5-2,7.3-2,11.4c0,4,0.7,7.8,2,11.4c1.4,3.6,3.3,6.7,5.7,9.3c2.5,2.7,5.4,4.7,8.8,6.3C892.2,625.5,896,626.3,900.1,626.3z"
		/>
	<path fill="#C8C8C8" d="M1020,561.8h8.4v62.7h32.2v7.8H1020V561.8z"/>
	<path fill="#C8C8C8" d="M1139.4,561.8h8.4v70.4h-8.4V561.8z"/>
	<path fill="#C8C8C8" d="M1233.6,561.8h27.1c2.3,0,4.8,0.3,7.4,0.8c2.6,0.5,5.2,1.4,7.7,2.5c2.6,1.2,5,2.7,7.4,4.5
		c2.4,1.9,4.4,4.1,6.2,6.7c1.8,2.6,3.2,5.6,4.3,9.1c1.1,3.4,1.6,7.3,1.6,11.6c0,4.3-0.5,8.2-1.6,11.6c-1.1,3.4-2.5,6.4-4.3,9.1
		c-1.8,2.6-3.9,4.9-6.2,6.7c-2.4,1.9-4.8,3.4-7.4,4.5c-2.6,1.2-5.1,2-7.7,2.5c-2.6,0.5-5,0.8-7.4,0.8h-27.1V561.8z M1241.9,624.5
		h15.9c4,0,7.8-0.5,11.2-1.6c3.4-1.1,6.4-2.7,9-4.9c2.5-2.2,4.5-5.1,6-8.5c1.5-3.4,2.2-7.6,2.2-12.4c0-4.8-0.7-9-2.2-12.4
		c-1.5-3.5-3.5-6.3-6-8.5c-2.5-2.2-5.5-3.9-9-4.9c-3.4-1.1-7.2-1.6-11.2-1.6h-15.9V624.5z"/>
	<path fill="#C8C8C8" d="M1425.5,569.6h-23.3v62.7h-8.4v-62.7h-23.3v-7.8h54.9V569.6z"/>
	<path fill="#C8C8C8" d="M1602.3,561.8h12.4l23.9,55.2h0.2l24.1-55.2h12.1v70.4h-8.4v-59.1h-0.2l-25.3,59.1h-5.1l-25.3-59.1h-0.2
		v59.1h-8.4V561.8z"/>
	<path fill="#C8C8C8" d="M1815,605.4c0,3.8-0.5,7.5-1.4,10.9c-1,3.5-2.5,6.5-4.6,9.1c-2.1,2.6-4.8,4.7-8.2,6.3
		c-3.4,1.6-7.5,2.3-12.3,2.3c-4.8,0-9-0.8-12.3-2.3c-3.4-1.6-6.1-3.6-8.2-6.3c-2.1-2.6-3.6-5.7-4.6-9.1c-1-3.4-1.4-7.1-1.4-10.9
		v-43.6h8.4v42.4c0,2.9,0.3,5.6,0.9,8.3c0.6,2.7,1.6,5,3,7.1c1.4,2.1,3.2,3.7,5.6,4.9c2.3,1.2,5.2,1.8,8.8,1.8
		c3.5,0,6.4-0.6,8.8-1.8c2.3-1.2,4.2-2.9,5.6-4.9c1.4-2.1,2.4-4.4,3-7.1c0.6-2.7,0.9-5.4,0.9-8.3v-42.4h8.4V605.4z"/>
	<path fill="#C8C8C8" d="M1901.9,561.8h18c3.4,0,6.7,0.2,10.1,0.6c3.3,0.4,6.4,1.3,9,2.6c2.7,1.3,4.8,3.3,6.5,5.8
		c1.7,2.6,2.5,6,2.5,10.4c0,5.2-1.6,9.4-4.7,12.5c-3.1,3.2-7.4,5.2-12.9,6.1l20,32.4h-10.2l-19.1-31.6h-10.7v31.6h-8.4V561.8z
		 M1910.3,592.8h7.5c2.3,0,4.7-0.1,7.2-0.2c2.5-0.1,4.8-0.6,6.9-1.3c2.1-0.7,3.8-1.9,5.2-3.4c1.4-1.6,2-3.8,2-6.7
		c0-2.5-0.5-4.5-1.5-6.1c-1-1.5-2.3-2.7-3.9-3.5c-1.6-0.8-3.5-1.4-5.5-1.6c-2-0.3-4.1-0.4-6.1-0.4h-11.7V592.8z"/>
	<path fill="#C8C8C8" d="M2020.9,561.8h9.5l21.7,57.9h0.2l22.4-57.9h8.9l-27.6,70.4h-8.1L2020.9,561.8z"/>
	<path fill="#C8C8C8" d="M2192.4,561.8h43.3v7.8h-29.3v22.1h27.5v7.8h-27.5v25.1h30.4v7.8h-38.8v-19.1h-29.2l-12.2,19.1h-10
		L2192.4,561.8z M2198.1,569.6h-1.2l-23,35.8h24.2V569.6z"/>
	<path fill="#C8C8C8" d="M2320,561.8h18c3.4,0,6.7,0.2,10.1,0.6c3.3,0.4,6.4,1.3,9,2.6c2.7,1.3,4.8,3.3,6.5,5.8
		c1.7,2.6,2.5,6,2.5,10.4c0,5.2-1.6,9.4-4.7,12.5c-3.1,3.2-7.4,5.2-12.9,6.1l20,32.4h-10.2l-19.1-31.6h-10.7v31.6h-8.4V561.8z
		 M2328.3,592.8h7.5c2.3,0,4.7-0.1,7.2-0.2c2.5-0.1,4.8-0.6,6.9-1.3c2.1-0.7,3.8-1.9,5.2-3.4c1.4-1.6,2-3.8,2-6.7
		c0-2.5-0.5-4.5-1.5-6.1c-1-1.5-2.3-2.7-3.9-3.5c-1.6-0.8-3.5-1.4-5.5-1.6s-4.1-0.4-6.1-0.4h-11.7V592.8z"/>
	<path fill="#C8C8C8" d="M2450.4,561.8h8.4v30.4h1.2l32-30.4h12l-34.8,32.1l36.5,38.3h-12.2l-33.5-35.8h-1.2v35.8h-8.4V561.8z"/>
</g>
</svg>
